<svg width="30" height="22" viewBox="0 0 30 22" fill="none" xmlns="http://www.w3.org/2000/svg">
<path d="M20.8143 12.4791C22.2964 13.8794 22.3626 16.2161 20.9623 17.6982L18.0041 20.829C16.6037 22.311 14.2671 22.3773 12.785 20.9769L1.15638 9.98944C-0.32569 8.58909 -0.391933 6.25242 1.00842 4.77035L3.96659 1.63956C5.36695 0.157494 7.70362 0.0912509 9.18569 1.49161L20.8143 12.4791Z" fill="#3467D5"/>
<path d="M18.0041 20.829C16.6037 22.311 14.2671 22.3773 12.785 20.9769L9.65422 18.0188C8.17215 16.6184 8.10591 14.2817 9.50627 12.7997L20.4937 1.17104C21.8941 -0.311034 24.2308 -0.377277 25.7128 1.02308L28.8436 3.98125C30.3257 5.3816 30.3919 7.71827 28.9916 9.20034L18.0041 20.829Z" fill="#0141CB"/>
<path d="M12.5578 18.0815C10.9934 16.6034 10.9235 14.1369 12.4016 12.5725C13.8798 11.0081 16.3463 10.9381 17.9107 12.4163C19.4751 13.8945 19.545 16.3609 18.0669 17.9253C16.5887 19.4898 14.1222 19.5597 12.5578 18.0815Z" fill="#B3E380"/>
</svg>
